<?xml version="1.0" encoding="utf-8"?>
<!-- Generator: Adobe Illustrator 17.0.0, SVG Export Plug-In . SVG Version: 6.00 Build 0)  -->
<!DOCTYPE svg PUBLIC "-//W3C//DTD SVG 1.1//EN" "http://www.w3.org/Graphics/SVG/1.1/DTD/svg11.dtd">
<svg version="1.1" id="Layer_1" xmlns="http://www.w3.org/2000/svg" xmlns:xlink="http://www.w3.org/1999/xlink" x="0px" y="0px"
	 width="100%" height="100%" viewBox="0.315 56.407 581.146 675.558"
	 enable-background="new 0.315 56.407 581.146 675.558" xml:space="preserve">
<path fill="#231F20" d="M581.461,552.359c-15.88,35.425-23.21,51.305-43.976,81.844c-28.096,43.976-68.407,97.725-118.491,97.725
	c-43.976,0-56.192-29.317-116.048-28.096c-59.856,0-72.072,29.317-117.269,28.096c-50.084,0-87.952-48.862-116.048-92.838
	c-79.401-120.934-87.952-263.856-39.09-339.593c35.425-53.748,90.395-85.509,141.701-85.509c52.527,0,85.509,29.317,129.485,29.317
	c42.754,0,68.407-29.317,129.485-29.317c46.419,0,95.281,25.653,129.485,68.407C447.09,345.916,465.413,508.383,581.461,552.359
	L581.461,552.359z"/>
<path fill="#231F20" d="M384.79,166.347c21.988-28.096,39.09-68.407,32.982-109.94c-36.647,2.443-78.18,25.653-103.832,56.192
	c-21.988,26.874-41.533,67.186-34.204,107.497C320.048,220.096,361.581,196.886,384.79,166.347L384.79,166.347z"/>
</svg>
