<!-- Generator: Adobe Illustrator 23.0.4, SVG Export Plug-In  -->
<svg class="logo-animation" version="1.1" xmlns="http://www.w3.org/2000/svg" xmlns:xlink="http://www.w3.org/1999/xlink" x="0px" y="0px"
	 width="168.06px" height="206.19px" viewBox="0 0 168.06 206.19" style="enable-background:new 0 0 168.06 206.19;"
	 xml:space="preserve">
<style type="text/css">
	.st0{fill:#3D3D3D;}
</style>
<defs>
</defs>
<g>
	<g>
		<path class="st0" d="M160.04,141.63c1.74,2.78,2.6,6.59,2.6,11.45c0,8.33-1.97,15.5-5.9,21.52c-6.48,9.95-14.98,17.7-25.51,23.25
			c-10.53,5.55-23.08,8.33-37.66,8.33c-22.21,0-39.45-6.65-51.71-19.96c-12.27-13.3-18.39-31.29-18.39-53.97
			c0-15.96,3.35-30.83,10.06-44.6c6.71-13.76,16.02-24.7,27.94-32.8c11.91-8.1,25.39-12.15,40.43-12.15
			c13.42,0,24.18,3.99,32.28,11.97c8.1,7.98,12.15,18.8,12.15,32.45c0,15.96-5.73,29.67-17.18,41.13
			c-11.45,11.45-30.95,20.54-58.48,27.24c5.55,10.64,14.92,15.96,28.11,15.96c9.48,0,17.29-2.2,23.43-6.59
			c6.13-4.39,13.24-11.8,21.34-22.21c2.78-3.47,5.9-5.21,9.37-5.21C155.92,137.47,158.3,138.86,160.04,141.63z M74.31,91.66
			c-5.9,9.95-8.85,21.98-8.85,36.09v0.69c13.65-3.24,24.41-8.1,32.28-14.58c7.86-6.47,11.8-14,11.8-22.56
			c0-4.39-1.21-7.92-3.64-10.59c-2.43-2.66-5.73-3.99-9.89-3.99C87.44,76.73,80.21,81.71,74.31,91.66z"/>
	</g>
	<g>
		<path class="st0" d="M81.49,7.52c0.93,4.73,1.77,22.21-1.33,22.82c-3.1,0.61-8.96-15.88-9.89-20.61
			c-0.93-4.73,0.83-9.05,3.93-9.66C77.29-0.54,80.55,2.8,81.49,7.52z"/>
		<path class="st0" d="M156.55,19.83c-2.98,3.79-11.67,18.98-9.18,20.93c2.48,1.95,15.2-10.07,18.18-13.86
			c2.98-3.79,3.38-8.44,0.89-10.39C163.95,14.56,159.53,16.05,156.55,19.83z"/>
		<path class="st0" d="M10.79,42.7c4.29,2.18,18.57,12.3,17.14,15.12C26.5,60.63,9.9,55.08,5.61,52.9
			c-4.29-2.18-6.62-6.23-5.19-9.05C1.85,41.03,6.49,40.52,10.79,42.7z"/>
	</g>
</g>
</svg>
