<!-- Generator: Adobe Illustrator 23.0.4, SVG Export Plug-In  -->
<svg version="1.1" xmlns="http://www.w3.org/2000/svg" xmlns:xlink="http://www.w3.org/1999/xlink" x="0px" y="0px"
	 width="233.68px" height="298.69px" viewBox="0 0 233.68 298.69" style="enable-background:new 0 0 233.68 298.69;"
	 xml:space="preserve">
<style type="text/css">
	.st0{fill:#3D3D3D;}
</style>
<defs>
</defs>
<g>
	<g>
		<path class="st0" d="M182.13,141.63c1.74,2.78,2.6,6.59,2.6,11.45c0,8.33-1.97,15.5-5.9,21.52c-6.48,9.95-14.98,17.7-25.51,23.25
			c-10.53,5.55-23.08,8.33-37.66,8.33c-22.21,0-39.45-6.65-51.71-19.96c-12.27-13.3-18.39-31.29-18.39-53.97
			c0-15.96,3.35-30.83,10.06-44.6c6.71-13.76,16.02-24.7,27.94-32.8c11.91-8.1,25.39-12.15,40.43-12.15
			c13.42,0,24.18,3.99,32.28,11.97c8.1,7.98,12.15,18.8,12.15,32.45c0,15.96-5.73,29.67-17.18,41.13
			c-11.45,11.45-30.95,20.54-58.48,27.24c5.55,10.64,14.92,15.96,28.11,15.96c9.48,0,17.29-2.2,23.43-6.59
			c6.13-4.39,13.24-11.8,21.34-22.21c2.78-3.47,5.9-5.21,9.37-5.21C178.02,137.47,180.39,138.86,182.13,141.63z M96.41,91.66
			c-5.9,9.95-8.85,21.98-8.85,36.09v0.69c13.65-3.24,24.41-8.1,32.28-14.58c7.86-6.47,11.8-14,11.8-22.56
			c0-4.39-1.21-7.92-3.64-10.59c-2.43-2.66-5.73-3.99-9.89-3.99C109.53,76.73,102.31,81.71,96.41,91.66z"/>
	</g>
	<g>
		<path class="st0" d="M103.58,7.52c0.93,4.73,1.77,22.21-1.33,22.82c-3.1,0.61-8.96-15.88-9.89-20.61s0.83-9.05,3.93-9.66
			C99.38-0.54,102.65,2.8,103.58,7.52z"/>
		<path class="st0" d="M178.64,19.83c-2.98,3.79-11.67,18.98-9.18,20.93c2.48,1.95,15.2-10.07,18.18-13.86
			c2.98-3.79,3.38-8.44,0.89-10.39C186.05,14.56,181.62,16.05,178.64,19.83z"/>
		<path class="st0" d="M32.88,42.7c4.29,2.18,18.57,12.3,17.14,15.12C48.59,60.63,32,55.08,27.7,52.9
			c-4.29-2.18-6.62-6.23-5.19-9.05C23.95,41.03,28.59,40.52,32.88,42.7z"/>
	</g>
	<g>
		<path class="st0" d="M27.93,259.95c0.29,0.46,0.44,1.1,0.44,1.91c0,1.55-0.37,2.75-1.1,3.6c-1.43,1.74-3.45,3.34-6.06,4.81
			c-2.61,1.47-5.4,2.2-8.38,2.2c-4.06,0-7.21-1.1-9.45-3.31c-2.24-2.2-3.36-5.22-3.36-9.05c0-2.67,0.56-5.15,1.68-7.45
			c1.12-2.3,2.68-4.13,4.67-5.48c1.99-1.35,4.24-2.03,6.76-2.03c2.24,0,4.04,0.67,5.39,2c1.35,1.33,2.03,3.14,2.03,5.42
			c0,2.67-0.96,4.96-2.87,6.87c-1.91,1.91-5.15,3.43-9.72,4.55c0.97,1.78,2.8,2.67,5.51,2.67c1.74,0,3.72-0.61,5.94-1.83
			c2.22-1.22,4.15-2.81,5.77-4.79c0.46-0.54,0.99-0.81,1.57-0.81C27.24,259.25,27.64,259.49,27.93,259.95z M8.5,253.34
			c-0.99,1.66-1.48,3.67-1.48,6.03v0.12c2.28-0.54,4.08-1.35,5.39-2.44c1.31-1.08,1.97-2.34,1.97-3.77c0-0.73-0.2-1.32-0.61-1.77
			c-0.41-0.44-0.96-0.67-1.65-0.67C10.69,250.84,9.48,251.68,8.5,253.34z"/>
		<path class="st0" d="M46.83,259.95c0.29,0.46,0.44,1.1,0.44,1.91c0,1.55-0.37,2.75-1.1,3.6c-1.66,2.05-3.47,3.73-5.42,5.05
			c-1.95,1.31-4.17,1.97-6.64,1.97c-3.4,0-5.93-1.55-7.57-4.64c-1.64-3.09-2.46-7.1-2.46-12.01c0-4.72,0.61-10.09,1.83-16.12
			c1.22-6.03,3.02-11.21,5.39-15.54c2.38-4.33,5.21-6.5,8.5-6.5c1.86,0,3.31,0.86,4.38,2.58c1.06,1.72,1.59,4.19,1.59,7.4
			c0,4.6-1.28,9.94-3.83,16.01c-2.55,6.07-6.01,12.08-10.38,18.04c0.27,1.59,0.72,2.72,1.33,3.39c0.62,0.68,1.43,1.02,2.44,1.02
			c1.58,0,2.98-0.45,4.18-1.36c1.2-0.91,2.73-2.46,4.58-4.67c0.46-0.54,0.99-0.81,1.57-0.81C46.15,259.25,46.54,259.49,46.83,259.95
			z M35.5,228.22c-1.12,3.21-2.11,7.19-2.96,11.95c-0.85,4.76-1.31,9.32-1.39,13.69c2.75-4.52,4.93-9.06,6.55-13.6
			c1.62-4.54,2.44-8.69,2.44-12.44c0-2.94-0.54-4.41-1.62-4.41C37.62,223.41,36.62,225.02,35.5,228.22z"/>
		<path class="st0" d="M44.22,270.07c-1.1-1.6-1.65-3.6-1.65-6c0-2.9,0.19-5.56,0.58-7.97c0.39-2.42,1.02-4.98,1.91-7.69
			c0.39-1.16,0.93-1.99,1.62-2.49c0.7-0.5,1.8-0.75,3.31-0.75c0.85,0,1.44,0.14,1.77,0.41c0.33,0.27,0.49,0.68,0.49,1.22
			c0,0.31-0.21,1.35-0.64,3.13c-0.39,1.43-0.7,2.73-0.93,3.89c-0.77,4.06-1.16,6.77-1.16,8.12c0,0.81,0.1,1.38,0.29,1.71
			c0.19,0.33,0.5,0.49,0.93,0.49c0.58,0,1.31-0.58,2.18-1.74c0.87-1.16,1.8-2.92,2.78-5.28c0.99-2.36,1.94-5.26,2.87-8.7
			c0.31-1.16,0.78-1.99,1.42-2.49c0.64-0.5,1.6-0.75,2.87-0.75c0.89,0,1.51,0.11,1.86,0.32c0.35,0.21,0.52,0.61,0.52,1.19
			c0,0.97-0.48,3.62-1.45,7.95c-1.08,4.95-1.62,8-1.62,9.16c0,0.74,0.15,1.3,0.46,1.71c0.31,0.41,0.71,0.61,1.22,0.61
			c0.77,0,1.69-0.47,2.76-1.42c1.06-0.95,2.48-2.48,4.26-4.61c0.46-0.54,0.99-0.81,1.57-0.81c0.5,0,0.9,0.23,1.19,0.7
			c0.29,0.46,0.44,1.1,0.44,1.91c0,1.55-0.37,2.75-1.1,3.6c-1.66,2.05-3.45,3.73-5.36,5.05s-4.09,1.97-6.52,1.97
			c-1.86,0-3.22-0.71-4.09-2.15c-0.87-1.43-1.3-3.44-1.3-6.03c-0.66,2.63-1.64,4.65-2.96,6.06c-1.31,1.41-2.73,2.12-4.23,2.12
			C46.75,272.48,45.33,271.68,44.22,270.07z"/>
		<path class="st0" d="M70.38,270.16c-0.6-1.55-0.9-4.02-0.9-7.42c0-5.03,0.72-9.8,2.15-14.33c0.35-1.12,0.92-1.94,1.71-2.46
			c0.79-0.52,1.9-0.78,3.33-0.78c0.77,0,1.31,0.1,1.62,0.29c0.31,0.19,0.46,0.56,0.46,1.1c0,0.62-0.29,2.01-0.87,4.18
			c-0.39,1.55-0.7,2.89-0.93,4.03s-0.43,2.56-0.58,4.26c1.04-3.02,2.29-5.57,3.74-7.66s2.94-3.64,4.47-4.67
			c1.53-1.02,2.97-1.54,4.32-1.54c1.35,0,2.31,0.31,2.87,0.93c0.56,0.62,0.84,1.57,0.84,2.84c0,1.24-0.37,3.48-1.1,6.73
			c-0.31,1.39-0.52,2.44-0.64,3.13c1.93-4.76,4.08-8.22,6.44-10.38c2.36-2.17,4.56-3.25,6.61-3.25c2.51,0,3.77,1.26,3.77,3.77
			c0,1.51-0.43,4.23-1.28,8.18c-0.74,3.36-1.1,5.59-1.1,6.67c0,1.55,0.56,2.32,1.68,2.32c0.77,0,1.69-0.47,2.76-1.42
			c1.06-0.95,2.48-2.48,4.26-4.61c0.46-0.54,0.99-0.81,1.57-0.81c0.5,0,0.9,0.23,1.19,0.7c0.29,0.46,0.43,1.1,0.43,1.91
			c0,1.55-0.37,2.75-1.1,3.6c-1.66,2.05-3.45,3.73-5.37,5.05s-4.09,1.97-6.52,1.97c-1.97,0-3.46-0.57-4.47-1.71
			c-1.01-1.14-1.51-2.79-1.51-4.96c0-1.08,0.27-3.02,0.81-5.8c0.5-2.44,0.75-4.12,0.75-5.05c0-0.62-0.21-0.93-0.64-0.93
			c-0.5,0-1.22,0.65-2.15,1.94c-0.93,1.3-1.86,3.01-2.78,5.13c-0.93,2.13-1.68,4.37-2.26,6.73c-0.43,1.86-0.92,3.09-1.48,3.71
			c-0.56,0.62-1.46,0.93-2.7,0.93c-1.28,0-2.23-0.61-2.87-1.83c-0.64-1.22-0.96-2.7-0.96-4.44c0-1.47,0.19-3.6,0.58-6.38
			c0.31-2.47,0.46-4.1,0.46-4.87c0-0.62-0.21-0.93-0.64-0.93c-0.58,0-1.31,0.7-2.2,2.09c-0.89,1.39-1.75,3.17-2.58,5.34
			c-0.83,2.17-1.5,4.29-2,6.38c-0.43,1.82-0.92,3.04-1.48,3.68c-0.56,0.64-1.44,0.96-2.64,0.96
			C72.01,272.48,70.98,271.7,70.38,270.16z"/>
		<path class="st0" d="M114.17,269.81c-1.14-1.78-1.71-4.14-1.71-7.08c0-1.74,0.22-3.97,0.67-6.7c0.44-2.73,1.02-5.27,1.71-7.63
			c0.35-1.24,0.81-2.09,1.39-2.55s1.51-0.7,2.78-0.7c1.97,0,2.96,0.66,2.96,1.97c0,0.97-0.37,3.21-1.1,6.73
			c-0.93,4.25-1.39,7.13-1.39,8.64c0,1.16,0.15,2.05,0.46,2.67c0.31,0.62,0.83,0.93,1.57,0.93c0.7,0,1.57-0.48,2.61-1.45
			c1.04-0.97,2.44-2.49,4.18-4.58c0.46-0.54,0.99-0.81,1.57-0.81c0.5,0,0.9,0.23,1.19,0.7s0.43,1.1,0.43,1.91
			c0,1.55-0.37,2.75-1.1,3.6c-3.83,4.68-7.41,7.02-10.73,7.02C117.14,272.48,115.31,271.59,114.17,269.81z M116.46,240.2
			c-0.81-0.75-1.22-1.81-1.22-3.16c0-1.35,0.53-2.48,1.6-3.39c1.06-0.91,2.39-1.36,3.97-1.36c1.43,0,2.59,0.35,3.48,1.04
			c0.89,0.7,1.33,1.68,1.33,2.96c0,1.55-0.5,2.78-1.51,3.68c-1.01,0.91-2.34,1.36-4,1.36C118.49,241.33,117.27,240.95,116.46,240.2z
			"/>
		<path class="st0" d="M127.8,270.16c-0.6-1.55-0.9-4.02-0.9-7.42c0-5.03,0.71-9.8,2.15-14.33c0.35-1.12,0.92-1.94,1.71-2.46
			c0.79-0.52,1.9-0.78,3.33-0.78c0.77,0,1.31,0.1,1.62,0.29c0.31,0.19,0.46,0.56,0.46,1.1c0,0.62-0.29,2.01-0.87,4.18
			c-0.39,1.55-0.7,2.9-0.93,4.06c-0.23,1.16-0.43,2.59-0.58,4.29c1.28-3.32,2.71-6.03,4.29-8.12c1.58-2.09,3.14-3.58,4.67-4.47
			c1.53-0.89,2.93-1.33,4.21-1.33c2.51,0,3.77,1.26,3.77,3.77c0,1.51-0.43,4.23-1.28,8.18c-0.74,3.36-1.1,5.59-1.1,6.67
			c0,1.55,0.56,2.32,1.68,2.32c0.77,0,1.69-0.47,2.75-1.42s2.48-2.48,4.26-4.61c0.46-0.54,0.99-0.81,1.57-0.81
			c0.5,0,0.9,0.23,1.19,0.7s0.43,1.1,0.43,1.91c0,1.55-0.37,2.75-1.1,3.6c-1.66,2.05-3.45,3.73-5.37,5.05s-4.09,1.97-6.53,1.97
			c-1.97,0-3.46-0.57-4.47-1.71c-1.01-1.14-1.51-2.79-1.51-4.96c0-1.08,0.27-3.02,0.81-5.8c0.5-2.44,0.75-4.12,0.75-5.05
			c0-0.62-0.21-0.93-0.64-0.93c-0.5,0-1.21,0.65-2.12,1.94c-0.91,1.3-1.84,3.01-2.78,5.13c-0.95,2.13-1.71,4.37-2.29,6.73
			c-0.43,1.82-0.92,3.04-1.48,3.68c-0.56,0.64-1.44,0.96-2.64,0.96C129.43,272.48,128.4,271.7,127.8,270.16z"/>
		<path class="st0" d="M156.94,269.87c-1.43-1.74-2.15-4.02-2.15-6.84c0-3.09,0.71-6.02,2.15-8.79c1.43-2.76,3.33-4.99,5.71-6.67
			s4.9-2.52,7.57-2.52c0.85,0,1.42,0.16,1.71,0.49c0.29,0.33,0.53,0.92,0.72,1.77c0.81-0.15,1.66-0.23,2.55-0.23
			c1.89,0,2.84,0.68,2.84,2.03c0,0.81-0.29,2.75-0.87,5.8c-0.89,4.45-1.33,7.54-1.33,9.28c0,0.58,0.14,1.04,0.43,1.39
			c0.29,0.35,0.67,0.52,1.13,0.52c0.73,0,1.62-0.47,2.67-1.42s2.46-2.48,4.23-4.61c0.46-0.54,0.99-0.81,1.57-0.81
			c0.5,0,0.9,0.23,1.19,0.7s0.44,1.1,0.44,1.91c0,1.55-0.37,2.75-1.1,3.6c-1.59,1.97-3.27,3.63-5.05,4.99
			c-1.78,1.35-3.5,2.03-5.16,2.03c-1.28,0-2.45-0.43-3.51-1.3s-1.87-2.06-2.41-3.57c-2.01,3.25-4.54,4.87-7.6,4.87
			C160.29,272.48,158.37,271.61,156.94,269.87z M167.21,265.11c0.77-1,1.33-2.34,1.68-4l2.15-10.67c-1.62,0.04-3.12,0.65-4.49,1.83
			c-1.37,1.18-2.47,2.74-3.28,4.67c-0.81,1.93-1.22,3.98-1.22,6.15c0,1.2,0.24,2.09,0.72,2.67c0.48,0.58,1.15,0.87,2,0.87
			S166.44,266.12,167.21,265.11z"/>
		<path class="st0" d="M214.97,259.95c0.29,0.46,0.43,1.1,0.43,1.91c0,1.55-0.37,2.75-1.1,3.6c-1.66,2.05-3.45,3.73-5.37,5.05
			s-4.09,1.97-6.53,1.97c-2.05,0-3.71-0.73-4.99-2.2c-2.2,1.43-4.5,2.17-6.9,2.2c-0.5,7.46-1.64,13.7-3.42,18.71
			c-1.78,5.01-4.39,7.51-7.83,7.51c-2.09,0-3.63-0.75-4.64-2.26s-1.51-3.6-1.51-6.26c0-3.79,0.87-8.21,2.61-13.25
			c1.74-5.05,4.43-10.6,8.06-16.67c0-5.64-0.04-9.57-0.12-11.77c-0.04-1.12,0.41-2.01,1.33-2.67c0.93-0.66,2.09-0.99,3.48-0.99
			c0.81,0,1.4,0.17,1.77,0.49c0.37,0.33,0.57,0.98,0.61,1.94c0,0.97,0.02,1.68,0.06,2.15c1.24-1.55,2.46-2.66,3.65-3.33
			c1.2-0.68,2.47-1.01,3.83-1.01c2.17,0,3.93,0.87,5.31,2.61c1.37,1.74,2.06,4.02,2.06,6.84c0,2.05-0.33,4.04-0.99,5.97
			s-1.57,3.69-2.73,5.28c0.81,0.23,1.49,0.35,2.03,0.35c1.28,0,2.49-0.46,3.65-1.39c1.16-0.93,2.65-2.47,4.47-4.64
			c0.46-0.54,0.99-0.81,1.57-0.81C214.29,259.25,214.68,259.49,214.97,259.95z M182.35,286.19c0.7-4.54,1.14-10.2,1.33-16.96
			c-1.66,3.87-2.98,7.56-3.94,11.08c-0.97,3.52-1.45,6.48-1.45,8.87c0,1.24,0.15,2.18,0.44,2.84c0.29,0.66,0.63,0.99,1.01,0.99
			C180.78,293.01,181.65,290.74,182.35,286.19z M194.67,264.62c1.18-1.22,2.12-2.73,2.81-4.52s1.04-3.68,1.04-5.66
			c0-1.16-0.23-2.04-0.7-2.64s-1.08-0.9-1.86-0.9c-1.39,0-3.07,1.47-5.05,4.41c-0.04,1.7-0.06,4.2-0.06,7.48
			c0,1.78-0.02,3.15-0.06,4.12C192.21,266.6,193.49,265.84,194.67,264.62z"/>
		<path class="st0" d="M231.56,263.17c-1.41,2.73-3.29,4.94-5.63,6.64c-2.34,1.7-4.84,2.59-7.51,2.67
			c-0.5,7.46-1.64,13.7-3.42,18.71c-1.78,5.01-4.39,7.51-7.83,7.51c-2.09,0-3.63-0.75-4.64-2.26s-1.51-3.6-1.51-6.26
			c0-3.79,0.87-8.21,2.61-13.25c1.74-5.05,4.43-10.6,8.06-16.67c0-5.64-0.04-9.57-0.12-11.77c-0.04-1.12,0.41-2.01,1.33-2.67
			c0.93-0.66,2.09-0.99,3.48-0.99c0.81,0,1.4,0.17,1.77,0.49c0.37,0.33,0.57,0.98,0.61,1.94c0,0.97,0.02,1.68,0.06,2.15
			c1.24-1.55,2.46-2.66,3.65-3.33c1.2-0.68,2.47-1.01,3.83-1.01c2.17,0,3.93,0.87,5.31,2.61c1.37,1.74,2.06,4.02,2.06,6.84
			C233.68,257.55,232.97,260.44,231.56,263.17z M210.25,286.19c0.7-4.54,1.14-10.2,1.33-16.96c-1.66,3.87-2.98,7.56-3.94,11.08
			c-0.97,3.52-1.45,6.48-1.45,8.87c0,1.24,0.15,2.18,0.44,2.84c0.29,0.66,0.63,0.99,1.01,0.99
			C208.68,293.01,209.55,290.74,210.25,286.19z M222.57,264.62c1.18-1.22,2.12-2.73,2.81-4.52s1.04-3.68,1.04-5.66
			c0-1.16-0.23-2.04-0.7-2.64s-1.08-0.9-1.86-0.9c-1.39,0-3.07,1.47-5.05,4.41c-0.04,1.7-0.06,4.2-0.06,7.48
			c0,1.78-0.02,3.15-0.06,4.12C220.1,266.6,221.39,265.84,222.57,264.62z"/>
	</g>
</g>
</svg>
